<svg width="28" height="27" viewBox="0 0 28 27" fill="none" xmlns="http://www.w3.org/2000/svg">
<path d="M4.66036 24.2924L10.423 16.919C10.7189 16.6083 10.8996 16.2022 10.9335 15.7702C10.9379 15.634 10.9086 15.4988 10.849 15.3769C10.7893 15.2551 10.7013 15.1504 10.592 15.0723C10.325 14.8844 10.0051 14.7912 9.6811 14.8071C9.5378 14.8116 9.39487 14.824 9.25288 14.8443L0 16.1189V10.8809L9.25288 12.1693C9.39484 12.1898 9.53779 12.2023 9.6811 12.2065C10.0063 12.2215 10.3268 12.1251 10.592 11.9323C10.7008 11.8526 10.7883 11.7469 10.8479 11.6245C10.9074 11.502 10.937 11.3665 10.9335 11.2298C10.9049 10.8043 10.7312 10.4024 10.4419 10.0947L4.64257 2.61445L9.31628 0L12.7965 8.74569C12.9009 9.07224 13.0851 9.36646 13.3304 9.60146C13.4182 9.69665 13.5232 9.77251 13.6407 9.82435C13.7583 9.8762 13.8853 9.903 14.0133 9.903C14.1414 9.903 14.2684 9.8762 14.386 9.82435C14.5035 9.77251 14.6085 9.69665 14.6963 9.60146C14.9379 9.3642 15.1202 9.0706 15.2257 8.74569L18.6782 0L23.4353 2.61445L17.5804 10.0947C17.2838 10.4123 17.1033 10.8246 17.0698 11.2622C17.0674 11.3944 17.0964 11.5255 17.1544 11.6438C17.2123 11.7621 17.2974 11.8643 17.4024 11.9416C17.6786 12.132 18.0084 12.2248 18.3411 12.2065C18.4939 12.2101 18.647 12.1976 18.7972 12.1693L28 10.8809V16.1189L18.7972 14.8443C18.6333 14.8144 18.4663 14.8019 18.3 14.8071C17.9789 14.7877 17.6602 14.8723 17.3891 15.049C17.2857 15.1244 17.2015 15.2244 17.1444 15.3403C17.0872 15.4562 17.0587 15.5845 17.0609 15.7142C17.1004 16.1621 17.2812 16.5848 17.5759 16.919L23.4075 24.2924L18.6693 27L15.1979 18.2634C15.0897 17.9398 14.9089 17.6468 14.6696 17.4076C14.5818 17.3124 14.4757 17.2366 14.3581 17.1847C14.2406 17.1329 14.1136 17.1061 13.9855 17.1061C13.8575 17.1061 13.7316 17.1329 13.614 17.1847C13.4965 17.2366 13.3904 17.3124 13.3026 17.4076C13.0617 17.649 12.8746 17.9409 12.7554 18.2634L9.27512 27L4.66036 24.2924Z" fill="#1E1E1E"/>
</svg>
